solid CATIA STL
  facet normal  -0.000000e+00  0.000000e+00 -1.000000e+00
    outer loop
      vertex -2.100000e+02  6.500000e+01 -6.500000e+01
      vertex  2.100000e+02  6.500000e+01 -6.500000e+01
      vertex -2.100000e+02 -6.500000e+01 -6.500000e+01
    endloop
  endfacet
  facet normal  0.000000e+00  0.000000e+00 -1.000000e+00
    outer loop
      vertex -2.100000e+02 -6.500000e+01 -6.500000e+01
      vertex  2.100000e+02  6.500000e+01 -6.500000e+01
      vertex  2.100000e+02 -6.500000e+01 -6.500000e+01
    endloop
  endfacet
  facet normal  0.000000e+00  1.000000e+00  0.000000e+00
    outer loop
      vertex -3.500000e+01  6.500000e+01  2.000000e+01
      vertex  3.500000e+01  6.500000e+01  2.000000e+01
      vertex  2.500000e+00  6.500000e+01  4.330127e+00
    endloop
  endfacet
  facet normal  0.000000e+00  1.000000e+00  0.000000e+00
    outer loop
      vertex -3.500000e+01  6.500000e+01  2.000000e+01
      vertex  2.500000e+00  6.500000e+01  4.330127e+00
      vertex -3.061617e-16  6.500000e+01  5.000000e+00
    endloop
  endfacet
  facet normal  0.000000e+00  1.000000e+00  0.000000e+00
    outer loop
      vertex -3.500000e+01  6.500000e+01  2.000000e+01
      vertex -3.061617e-16  6.500000e+01  5.000000e+00
      vertex -2.500000e+00  6.500000e+01  4.330127e+00
    endloop
  endfacet
  facet normal  0.000000e+00  1.000000e+00  0.000000e+00
    outer loop
      vertex -3.500000e+01  6.500000e+01  2.000000e+01
      vertex -2.500000e+00  6.500000e+01  4.330127e+00
      vertex -3.500000e+01  6.500000e+01 -2.000000e+01
    endloop
  endfacet
  facet normal  0.000000e+00  1.000000e+00  0.000000e+00
    outer loop
      vertex  3.500000e+01  6.500000e+01 -2.000000e+01
      vertex -3.500000e+01  6.500000e+01 -2.000000e+01
      vertex  9.184850e-16  6.500000e+01 -5.000000e+00
    endloop
  endfacet
  facet normal  -0.000000e+00  1.000000e+00  0.000000e+00
    outer loop
      vertex  3.500000e+01  6.500000e+01 -2.000000e+01
      vertex  9.184850e-16  6.500000e+01 -5.000000e+00
      vertex  2.500000e+00  6.500000e+01 -4.330127e+00
    endloop
  endfacet
  facet normal  -0.000000e+00  1.000000e+00  0.000000e+00
    outer loop
      vertex  3.500000e+01  6.500000e+01 -2.000000e+01
      vertex  2.500000e+00  6.500000e+01 -4.330127e+00
      vertex  4.330127e+00  6.500000e+01 -2.500000e+00
    endloop
  endfacet
  facet normal  -0.000000e+00  1.000000e+00  0.000000e+00
    outer loop
      vertex  3.500000e+01  6.500000e+01 -2.000000e+01
      vertex  4.330127e+00  6.500000e+01 -2.500000e+00
      vertex  5.000000e+00  6.500000e+01  6.123234e-16
    endloop
  endfacet
  facet normal  -0.000000e+00  1.000000e+00  -0.000000e+00
    outer loop
      vertex  3.500000e+01  6.500000e+01 -2.000000e+01
      vertex  5.000000e+00  6.500000e+01  6.123234e-16
      vertex  4.330127e+00  6.500000e+01  2.500000e+00
    endloop
  endfacet
  facet normal  -0.000000e+00  1.000000e+00  -0.000000e+00
    outer loop
      vertex  3.500000e+01  6.500000e+01 -2.000000e+01
      vertex  4.330127e+00  6.500000e+01  2.500000e+00
      vertex  2.500000e+00  6.500000e+01  4.330127e+00
    endloop
  endfacet
  facet normal  -0.000000e+00  1.000000e+00  0.000000e+00
    outer loop
      vertex  3.500000e+01  6.500000e+01 -2.000000e+01
      vertex  2.500000e+00  6.500000e+01  4.330127e+00
      vertex  3.500000e+01  6.500000e+01  2.000000e+01
    endloop
  endfacet
  facet normal  0.000000e+00  1.000000e+00  0.000000e+00
    outer loop
      vertex -3.500000e+01  6.500000e+01 -2.000000e+01
      vertex -2.500000e+00  6.500000e+01  4.330127e+00
      vertex -4.330127e+00  6.500000e+01  2.500000e+00
    endloop
  endfacet
  facet normal  0.000000e+00  1.000000e+00  0.000000e+00
    outer loop
      vertex -3.500000e+01  6.500000e+01 -2.000000e+01
      vertex -4.330127e+00  6.500000e+01  2.500000e+00
      vertex -5.000000e+00  6.500000e+01  0.000000e+00
    endloop
  endfacet
  facet normal  0.000000e+00  1.000000e+00  0.000000e+00
    outer loop
      vertex -3.500000e+01  6.500000e+01 -2.000000e+01
      vertex -5.000000e+00  6.500000e+01  0.000000e+00
      vertex -4.330127e+00  6.500000e+01 -2.500000e+00
    endloop
  endfacet
  facet normal  0.000000e+00  1.000000e+00  0.000000e+00
    outer loop
      vertex -3.500000e+01  6.500000e+01 -2.000000e+01
      vertex -4.330127e+00  6.500000e+01 -2.500000e+00
      vertex -2.500000e+00  6.500000e+01 -4.330127e+00
    endloop
  endfacet
  facet normal  0.000000e+00  1.000000e+00  0.000000e+00
    outer loop
      vertex -3.500000e+01  6.500000e+01 -2.000000e+01
      vertex -2.500000e+00  6.500000e+01 -4.330127e+00
      vertex  9.184850e-16  6.500000e+01 -5.000000e+00
    endloop
  endfacet
  facet normal  0.000000e+00  1.000000e+00  -0.000000e+00
    outer loop
      vertex  2.100000e+02  6.500000e+01  6.500000e+01
      vertex -3.500000e+01  6.500000e+01  2.000000e+01
      vertex -2.100000e+02  6.500000e+01  6.500000e+01
    endloop
  endfacet
  facet normal  0.000000e+00  1.000000e+00  0.000000e+00
    outer loop
      vertex -2.100000e+02  6.500000e+01  6.500000e+01
      vertex -3.500000e+01  6.500000e+01  2.000000e+01
      vertex -3.500000e+01  6.500000e+01 -2.000000e+01
    endloop
  endfacet
  facet normal  0.000000e+00  9.999999e-01  0.000000e+00
    outer loop
      vertex -2.100000e+02  6.500000e+01  6.500000e+01
      vertex -3.500000e+01  6.500000e+01 -2.000000e+01
      vertex -2.100000e+02  6.500000e+01 -6.500000e+01
    endloop
  endfacet
  facet normal  0.000000e+00  9.999999e-01  0.000000e+00
    outer loop
      vertex -3.500000e+01  6.500000e+01  2.000000e+01
      vertex  2.100000e+02  6.500000e+01  6.500000e+01
      vertex  3.500000e+01  6.500000e+01  2.000000e+01
    endloop
  endfacet
  facet normal  -0.000000e+00  9.999999e-01  0.000000e+00
    outer loop
      vertex  3.500000e+01  6.500000e+01  2.000000e+01
      vertex  2.100000e+02  6.500000e+01  6.500000e+01
      vertex  2.100000e+02  6.500000e+01 -6.500000e+01
    endloop
  endfacet
  facet normal  0.000000e+00  1.000000e+00  0.000000e+00
    outer loop
      vertex  3.500000e+01  6.500000e+01  2.000000e+01
      vertex  2.100000e+02  6.500000e+01 -6.500000e+01
      vertex  3.500000e+01  6.500000e+01 -2.000000e+01
    endloop
  endfacet
  facet normal  0.000000e+00  1.000000e+00  0.000000e+00
    outer loop
      vertex  3.500000e+01  6.500000e+01 -2.000000e+01
      vertex  2.100000e+02  6.500000e+01 -6.500000e+01
      vertex -2.100000e+02  6.500000e+01 -6.500000e+01
    endloop
  endfacet
  facet normal  0.000000e+00  9.999999e-01  0.000000e+00
    outer loop
      vertex  3.500000e+01  6.500000e+01 -2.000000e+01
      vertex -2.100000e+02  6.500000e+01 -6.500000e+01
      vertex -3.500000e+01  6.500000e+01 -2.000000e+01
    endloop
  endfacet
  facet normal  0.000000e+00 -1.000000e+00  0.000000e+00
    outer loop
      vertex -3.500000e+01 -6.500000e+01  2.000000e+01
      vertex -3.500000e+01 -6.500000e+01 -2.000000e+01
      vertex -2.500000e+00 -6.500000e+01  4.330127e+00
    endloop
  endfacet
  facet normal  0.000000e+00 -1.000000e+00  0.000000e+00
    outer loop
      vertex -3.500000e+01 -6.500000e+01  2.000000e+01
      vertex -2.500000e+00 -6.500000e+01  4.330127e+00
      vertex -3.061617e-16 -6.500000e+01  5.000000e+00
    endloop
  endfacet
  facet normal  0.000000e+00 -1.000000e+00  0.000000e+00
    outer loop
      vertex -3.500000e+01 -6.500000e+01  2.000000e+01
      vertex -3.061617e-16 -6.500000e+01  5.000000e+00
      vertex  2.500000e+00 -6.500000e+01  4.330127e+00
    endloop
  endfacet
  facet normal  0.000000e+00 -1.000000e+00  0.000000e+00
    outer loop
      vertex -3.500000e+01 -6.500000e+01  2.000000e+01
      vertex  2.500000e+00 -6.500000e+01  4.330127e+00
      vertex  3.500000e+01 -6.500000e+01  2.000000e+01
    endloop
  endfacet
  facet normal  0.000000e+00 -1.000000e+00  -0.000000e+00
    outer loop
      vertex  3.500000e+01 -6.500000e+01 -2.000000e+01
      vertex  3.500000e+01 -6.500000e+01  2.000000e+01
      vertex  2.500000e+00 -6.500000e+01  4.330127e+00
    endloop
  endfacet
  facet normal  0.000000e+00 -1.000000e+00  0.000000e+00
    outer loop
      vertex  3.500000e+01 -6.500000e+01 -2.000000e+01
      vertex  2.500000e+00 -6.500000e+01  4.330127e+00
      vertex  4.330127e+00 -6.500000e+01  2.500000e+00
    endloop
  endfacet
  facet normal  0.000000e+00 -1.000000e+00  0.000000e+00
    outer loop
      vertex  3.500000e+01 -6.500000e+01 -2.000000e+01
      vertex  4.330127e+00 -6.500000e+01  2.500000e+00
      vertex  5.000000e+00 -6.500000e+01  6.123234e-16
    endloop
  endfacet
  facet normal  0.000000e+00 -1.000000e+00  -0.000000e+00
    outer loop
      vertex  3.500000e+01 -6.500000e+01 -2.000000e+01
      vertex  5.000000e+00 -6.500000e+01  6.123234e-16
      vertex  4.330127e+00 -6.500000e+01 -2.500000e+00
    endloop
  endfacet
  facet normal  0.000000e+00 -1.000000e+00  -0.000000e+00
    outer loop
      vertex  3.500000e+01 -6.500000e+01 -2.000000e+01
      vertex  4.330127e+00 -6.500000e+01 -2.500000e+00
      vertex  2.500000e+00 -6.500000e+01 -4.330127e+00
    endloop
  endfacet
  facet normal  0.000000e+00 -1.000000e+00  -0.000000e+00
    outer loop
      vertex  3.500000e+01 -6.500000e+01 -2.000000e+01
      vertex  2.500000e+00 -6.500000e+01 -4.330127e+00
      vertex  9.184850e-16 -6.500000e+01 -5.000000e+00
    endloop
  endfacet
  facet normal  0.000000e+00 -1.000000e+00  -0.000000e+00
    outer loop
      vertex  3.500000e+01 -6.500000e+01 -2.000000e+01
      vertex  9.184850e-16 -6.500000e+01 -5.000000e+00
      vertex -3.500000e+01 -6.500000e+01 -2.000000e+01
    endloop
  endfacet
  facet normal  -0.000000e+00 -1.000000e+00  0.000000e+00
    outer loop
      vertex -3.500000e+01 -6.500000e+01 -2.000000e+01
      vertex  9.184850e-16 -6.500000e+01 -5.000000e+00
      vertex -2.500000e+00 -6.500000e+01 -4.330127e+00
    endloop
  endfacet
  facet normal  -0.000000e+00 -1.000000e+00  0.000000e+00
    outer loop
      vertex -3.500000e+01 -6.500000e+01 -2.000000e+01
      vertex -2.500000e+00 -6.500000e+01 -4.330127e+00
      vertex -4.330127e+00 -6.500000e+01 -2.500000e+00
    endloop
  endfacet
  facet normal  -0.000000e+00 -1.000000e+00  0.000000e+00
    outer loop
      vertex -3.500000e+01 -6.500000e+01 -2.000000e+01
      vertex -4.330127e+00 -6.500000e+01 -2.500000e+00
      vertex -5.000000e+00 -6.500000e+01  0.000000e+00
    endloop
  endfacet
  facet normal  -0.000000e+00 -1.000000e+00  0.000000e+00
    outer loop
      vertex -3.500000e+01 -6.500000e+01 -2.000000e+01
      vertex -5.000000e+00 -6.500000e+01  0.000000e+00
      vertex -4.330127e+00 -6.500000e+01  2.500000e+00
    endloop
  endfacet
  facet normal  -0.000000e+00 -1.000000e+00  0.000000e+00
    outer loop
      vertex -3.500000e+01 -6.500000e+01 -2.000000e+01
      vertex -4.330127e+00 -6.500000e+01  2.500000e+00
      vertex -2.500000e+00 -6.500000e+01  4.330127e+00
    endloop
  endfacet
  facet normal  0.000000e+00  0.000000e+00  1.000000e+00
    outer loop
      vertex -2.100000e+02 -6.500000e+01  6.500000e+01
      vertex  2.100000e+02 -6.500000e+01  6.500000e+01
      vertex -2.100000e+02  6.500000e+01  6.500000e+01
    endloop
  endfacet
  facet normal  -0.000000e+00  0.000000e+00  1.000000e+00
    outer loop
      vertex -2.100000e+02  6.500000e+01  6.500000e+01
      vertex  2.100000e+02 -6.500000e+01  6.500000e+01
      vertex  2.100000e+02  6.500000e+01  6.500000e+01
    endloop
  endfacet
  facet normal  0.000000e+00 -1.000000e+00  -0.000000e+00
    outer loop
      vertex  2.100000e+02 -6.500000e+01 -6.500000e+01
      vertex -3.500000e+01 -6.500000e+01 -2.000000e+01
      vertex -2.100000e+02 -6.500000e+01 -6.500000e+01
    endloop
  endfacet
  facet normal  0.000000e+00 -1.000000e+00  0.000000e+00
    outer loop
      vertex -2.100000e+02 -6.500000e+01 -6.500000e+01
      vertex -3.500000e+01 -6.500000e+01 -2.000000e+01
      vertex -3.500000e+01 -6.500000e+01  2.000000e+01
    endloop
  endfacet
  facet normal  -0.000000e+00 -9.999999e-01  0.000000e+00
    outer loop
      vertex -2.100000e+02 -6.500000e+01 -6.500000e+01
      vertex -3.500000e+01 -6.500000e+01  2.000000e+01
      vertex -2.100000e+02 -6.500000e+01  6.500000e+01
    endloop
  endfacet
  facet normal  0.000000e+00 -9.999999e-01  0.000000e+00
    outer loop
      vertex -3.500000e+01 -6.500000e+01 -2.000000e+01
      vertex  2.100000e+02 -6.500000e+01 -6.500000e+01
      vertex  3.500000e+01 -6.500000e+01 -2.000000e+01
    endloop
  endfacet
  facet normal  0.000000e+00 -9.999999e-01  0.000000e+00
    outer loop
      vertex  3.500000e+01 -6.500000e+01 -2.000000e+01
      vertex  2.100000e+02 -6.500000e+01 -6.500000e+01
      vertex  2.100000e+02 -6.500000e+01  6.500000e+01
    endloop
  endfacet
  facet normal  0.000000e+00 -1.000000e+00  0.000000e+00
    outer loop
      vertex  3.500000e+01 -6.500000e+01 -2.000000e+01
      vertex  2.100000e+02 -6.500000e+01  6.500000e+01
      vertex  3.500000e+01 -6.500000e+01  2.000000e+01
    endloop
  endfacet
  facet normal  0.000000e+00 -1.000000e+00  0.000000e+00
    outer loop
      vertex  3.500000e+01 -6.500000e+01  2.000000e+01
      vertex  2.100000e+02 -6.500000e+01  6.500000e+01
      vertex -2.100000e+02 -6.500000e+01  6.500000e+01
    endloop
  endfacet
  facet normal  0.000000e+00 -9.999999e-01  0.000000e+00
    outer loop
      vertex  3.500000e+01 -6.500000e+01  2.000000e+01
      vertex -2.100000e+02 -6.500000e+01  6.500000e+01
      vertex -3.500000e+01 -6.500000e+01  2.000000e+01
    endloop
  endfacet
endsolid CATIA STL
