solid CATIA STL
  facet normal  -0.000000e+00  0.000000e+00 -1.000000e+00
    outer loop
      vertex -2.100000e+02  2.500000e+01 -6.500000e+01
      vertex  2.100000e+02  2.500000e+01 -6.500000e+01
      vertex -2.100000e+02 -2.500000e+01 -6.500000e+01
    endloop
  endfacet
  facet normal  0.000000e+00  0.000000e+00 -1.000000e+00
    outer loop
      vertex -2.100000e+02 -2.500000e+01 -6.500000e+01
      vertex  2.100000e+02  2.500000e+01 -6.500000e+01
      vertex  2.100000e+02 -2.500000e+01 -6.500000e+01
    endloop
  endfacet
  facet normal  0.000000e+00  1.000000e+00  -0.000000e+00
    outer loop
      vertex  2.100000e+02  2.500000e+01  6.500000e+01
      vertex -3.500000e+01  2.500000e+01  2.000000e+01
      vertex -2.100000e+02  2.500000e+01  6.500000e+01
    endloop
  endfacet
  facet normal  0.000000e+00  1.000000e+00  0.000000e+00
    outer loop
      vertex -2.100000e+02  2.500000e+01  6.500000e+01
      vertex -3.500000e+01  2.500000e+01  2.000000e+01
      vertex -3.500000e+01  2.500000e+01 -2.000000e+01
    endloop
  endfacet
  facet normal  0.000000e+00  9.999999e-01  0.000000e+00
    outer loop
      vertex -2.100000e+02  2.500000e+01  6.500000e+01
      vertex -3.500000e+01  2.500000e+01 -2.000000e+01
      vertex -2.100000e+02  2.500000e+01 -6.500000e+01
    endloop
  endfacet
  facet normal  0.000000e+00  9.999999e-01  0.000000e+00
    outer loop
      vertex -3.500000e+01  2.500000e+01  2.000000e+01
      vertex  2.100000e+02  2.500000e+01  6.500000e+01
      vertex  3.500000e+01  2.500000e+01  2.000000e+01
    endloop
  endfacet
  facet normal  -0.000000e+00  9.999999e-01  0.000000e+00
    outer loop
      vertex  3.500000e+01  2.500000e+01  2.000000e+01
      vertex  2.100000e+02  2.500000e+01  6.500000e+01
      vertex  2.100000e+02  2.500000e+01 -6.500000e+01
    endloop
  endfacet
  facet normal  0.000000e+00  1.000000e+00  0.000000e+00
    outer loop
      vertex  3.500000e+01  2.500000e+01  2.000000e+01
      vertex  2.100000e+02  2.500000e+01 -6.500000e+01
      vertex  3.500000e+01  2.500000e+01 -2.000000e+01
    endloop
  endfacet
  facet normal  0.000000e+00  1.000000e+00  0.000000e+00
    outer loop
      vertex  3.500000e+01  2.500000e+01 -2.000000e+01
      vertex  2.100000e+02  2.500000e+01 -6.500000e+01
      vertex -2.100000e+02  2.500000e+01 -6.500000e+01
    endloop
  endfacet
  facet normal  0.000000e+00  9.999999e-01  0.000000e+00
    outer loop
      vertex  3.500000e+01  2.500000e+01 -2.000000e+01
      vertex -2.100000e+02  2.500000e+01 -6.500000e+01
      vertex -3.500000e+01  2.500000e+01 -2.000000e+01
    endloop
  endfacet
  facet normal  0.000000e+00  0.000000e+00  1.000000e+00
    outer loop
      vertex -2.100000e+02 -2.500000e+01  6.500000e+01
      vertex  2.100000e+02 -2.500000e+01  6.500000e+01
      vertex -2.100000e+02  2.500000e+01  6.500000e+01
    endloop
  endfacet
  facet normal  -0.000000e+00  0.000000e+00  1.000000e+00
    outer loop
      vertex -2.100000e+02  2.500000e+01  6.500000e+01
      vertex  2.100000e+02 -2.500000e+01  6.500000e+01
      vertex  2.100000e+02  2.500000e+01  6.500000e+01
    endloop
  endfacet
  facet normal  0.000000e+00 -1.000000e+00  -0.000000e+00
    outer loop
      vertex  2.100000e+02 -2.500000e+01 -6.500000e+01
      vertex -3.500000e+01 -2.500000e+01 -2.000000e+01
      vertex -2.100000e+02 -2.500000e+01 -6.500000e+01
    endloop
  endfacet
  facet normal  0.000000e+00 -1.000000e+00  0.000000e+00
    outer loop
      vertex -2.100000e+02 -2.500000e+01 -6.500000e+01
      vertex -3.500000e+01 -2.500000e+01 -2.000000e+01
      vertex -3.500000e+01 -2.500000e+01  2.000000e+01
    endloop
  endfacet
  facet normal  -0.000000e+00 -9.999999e-01  0.000000e+00
    outer loop
      vertex -2.100000e+02 -2.500000e+01 -6.500000e+01
      vertex -3.500000e+01 -2.500000e+01  2.000000e+01
      vertex -2.100000e+02 -2.500000e+01  6.500000e+01
    endloop
  endfacet
  facet normal  0.000000e+00 -9.999999e-01  0.000000e+00
    outer loop
      vertex -3.500000e+01 -2.500000e+01 -2.000000e+01
      vertex  2.100000e+02 -2.500000e+01 -6.500000e+01
      vertex  3.500000e+01 -2.500000e+01 -2.000000e+01
    endloop
  endfacet
  facet normal  0.000000e+00 -9.999999e-01  0.000000e+00
    outer loop
      vertex  3.500000e+01 -2.500000e+01 -2.000000e+01
      vertex  2.100000e+02 -2.500000e+01 -6.500000e+01
      vertex  2.100000e+02 -2.500000e+01  6.500000e+01
    endloop
  endfacet
  facet normal  0.000000e+00 -1.000000e+00  0.000000e+00
    outer loop
      vertex  3.500000e+01 -2.500000e+01 -2.000000e+01
      vertex  2.100000e+02 -2.500000e+01  6.500000e+01
      vertex  3.500000e+01 -2.500000e+01  2.000000e+01
    endloop
  endfacet
  facet normal  0.000000e+00 -1.000000e+00  0.000000e+00
    outer loop
      vertex  3.500000e+01 -2.500000e+01  2.000000e+01
      vertex  2.100000e+02 -2.500000e+01  6.500000e+01
      vertex -2.100000e+02 -2.500000e+01  6.500000e+01
    endloop
  endfacet
  facet normal  0.000000e+00 -9.999999e-01  0.000000e+00
    outer loop
      vertex  3.500000e+01 -2.500000e+01  2.000000e+01
      vertex -2.100000e+02 -2.500000e+01  6.500000e+01
      vertex -3.500000e+01 -2.500000e+01  2.000000e+01
    endloop
  endfacet
endsolid CATIA STL
