solid CATIA STL
  facet normal  0.000000e+00  1.000000e+00  0.000000e+00
    outer loop
      vertex -3.500000e+01 -2.500000e+01  2.000000e+01
      vertex  3.500000e+01 -2.500000e+01  2.000000e+01
      vertex  2.500000e+00 -2.500000e+01  4.330127e+00
    endloop
  endfacet
  facet normal  0.000000e+00  1.000000e+00  0.000000e+00
    outer loop
      vertex -3.500000e+01 -2.500000e+01  2.000000e+01
      vertex  2.500000e+00 -2.500000e+01  4.330127e+00
      vertex  0.000000e+00 -2.500000e+01  5.000000e+00
    endloop
  endfacet
  facet normal  0.000000e+00  1.000000e+00  0.000000e+00
    outer loop
      vertex -3.500000e+01 -2.500000e+01  2.000000e+01
      vertex  0.000000e+00 -2.500000e+01  5.000000e+00
      vertex -2.500000e+00 -2.500000e+01  4.330127e+00
    endloop
  endfacet
  facet normal  0.000000e+00  1.000000e+00  0.000000e+00
    outer loop
      vertex -3.500000e+01 -2.500000e+01  2.000000e+01
      vertex -2.500000e+00 -2.500000e+01  4.330127e+00
      vertex -3.500000e+01 -2.500000e+01 -2.000000e+01
    endloop
  endfacet
  facet normal  0.000000e+00  1.000000e+00  0.000000e+00
    outer loop
      vertex  3.500000e+01 -2.500000e+01 -2.000000e+01
      vertex -3.500000e+01 -2.500000e+01 -2.000000e+01
      vertex  6.123234e-16 -2.500000e+01 -5.000000e+00
    endloop
  endfacet
  facet normal  -0.000000e+00  1.000000e+00  0.000000e+00
    outer loop
      vertex  3.500000e+01 -2.500000e+01 -2.000000e+01
      vertex  6.123234e-16 -2.500000e+01 -5.000000e+00
      vertex  2.500000e+00 -2.500000e+01 -4.330127e+00
    endloop
  endfacet
  facet normal  -0.000000e+00  1.000000e+00  0.000000e+00
    outer loop
      vertex  3.500000e+01 -2.500000e+01 -2.000000e+01
      vertex  2.500000e+00 -2.500000e+01 -4.330127e+00
      vertex  4.330127e+00 -2.500000e+01 -2.500000e+00
    endloop
  endfacet
  facet normal  -0.000000e+00  1.000000e+00  0.000000e+00
    outer loop
      vertex  3.500000e+01 -2.500000e+01 -2.000000e+01
      vertex  4.330127e+00 -2.500000e+01 -2.500000e+00
      vertex  5.000000e+00 -2.500000e+01  3.061617e-16
    endloop
  endfacet
  facet normal  -0.000000e+00  1.000000e+00  -0.000000e+00
    outer loop
      vertex  3.500000e+01 -2.500000e+01 -2.000000e+01
      vertex  5.000000e+00 -2.500000e+01  3.061617e-16
      vertex  4.330127e+00 -2.500000e+01  2.500000e+00
    endloop
  endfacet
  facet normal  -0.000000e+00  1.000000e+00  -0.000000e+00
    outer loop
      vertex  3.500000e+01 -2.500000e+01 -2.000000e+01
      vertex  4.330127e+00 -2.500000e+01  2.500000e+00
      vertex  2.500000e+00 -2.500000e+01  4.330127e+00
    endloop
  endfacet
  facet normal  -0.000000e+00  1.000000e+00  0.000000e+00
    outer loop
      vertex  3.500000e+01 -2.500000e+01 -2.000000e+01
      vertex  2.500000e+00 -2.500000e+01  4.330127e+00
      vertex  3.500000e+01 -2.500000e+01  2.000000e+01
    endloop
  endfacet
  facet normal  0.000000e+00  1.000000e+00  0.000000e+00
    outer loop
      vertex -3.500000e+01 -2.500000e+01 -2.000000e+01
      vertex -2.500000e+00 -2.500000e+01  4.330127e+00
      vertex -4.330127e+00 -2.500000e+01  2.500000e+00
    endloop
  endfacet
  facet normal  0.000000e+00  1.000000e+00  0.000000e+00
    outer loop
      vertex -3.500000e+01 -2.500000e+01 -2.000000e+01
      vertex -4.330127e+00 -2.500000e+01  2.500000e+00
      vertex -5.000000e+00 -2.500000e+01 -9.184850e-16
    endloop
  endfacet
  facet normal  0.000000e+00  1.000000e+00  0.000000e+00
    outer loop
      vertex -3.500000e+01 -2.500000e+01 -2.000000e+01
      vertex -5.000000e+00 -2.500000e+01 -9.184850e-16
      vertex -4.330127e+00 -2.500000e+01 -2.500000e+00
    endloop
  endfacet
  facet normal  0.000000e+00  1.000000e+00  0.000000e+00
    outer loop
      vertex -3.500000e+01 -2.500000e+01 -2.000000e+01
      vertex -4.330127e+00 -2.500000e+01 -2.500000e+00
      vertex -2.500000e+00 -2.500000e+01 -4.330127e+00
    endloop
  endfacet
  facet normal  0.000000e+00  1.000000e+00  0.000000e+00
    outer loop
      vertex -3.500000e+01 -2.500000e+01 -2.000000e+01
      vertex -2.500000e+00 -2.500000e+01 -4.330127e+00
      vertex  6.123234e-16 -2.500000e+01 -5.000000e+00
    endloop
  endfacet
  facet normal  0.000000e+00  1.000000e+00  0.000000e+00
    outer loop
      vertex  5.000000e+00 -2.500000e+01  3.061617e-16
      vertex  4.330127e+00 -2.500000e+01 -2.500000e+00
      vertex  4.330127e+00 -2.500000e+01  2.500000e+00
    endloop
  endfacet
  facet normal  0.000000e+00  1.000000e+00  -0.000000e+00
    outer loop
      vertex  4.330127e+00 -2.500000e+01  2.500000e+00
      vertex  4.330127e+00 -2.500000e+01 -2.500000e+00
      vertex  2.500000e+00 -2.500000e+01  4.330127e+00
    endloop
  endfacet
  facet normal  0.000000e+00  1.000000e+00  0.000000e+00
    outer loop
      vertex  2.500000e+00 -2.500000e+01  4.330127e+00
      vertex  4.330127e+00 -2.500000e+01 -2.500000e+00
      vertex  2.500000e+00 -2.500000e+01 -4.330127e+00
    endloop
  endfacet
  facet normal  0.000000e+00  1.000000e+00  -0.000000e+00
    outer loop
      vertex  2.500000e+00 -2.500000e+01  4.330127e+00
      vertex  2.500000e+00 -2.500000e+01 -4.330127e+00
      vertex  0.000000e+00 -2.500000e+01  5.000000e+00
    endloop
  endfacet
  facet normal  0.000000e+00  1.000000e+00  0.000000e+00
    outer loop
      vertex  0.000000e+00 -2.500000e+01  5.000000e+00
      vertex  2.500000e+00 -2.500000e+01 -4.330127e+00
      vertex  6.123234e-16 -2.500000e+01 -5.000000e+00
    endloop
  endfacet
  facet normal  0.000000e+00  1.000000e+00  0.000000e+00
    outer loop
      vertex  0.000000e+00 -2.500000e+01  5.000000e+00
      vertex  6.123234e-16 -2.500000e+01 -5.000000e+00
      vertex -2.500000e+00 -2.500000e+01  4.330127e+00
    endloop
  endfacet
  facet normal  0.000000e+00  1.000000e+00  0.000000e+00
    outer loop
      vertex -2.500000e+00 -2.500000e+01  4.330127e+00
      vertex  6.123234e-16 -2.500000e+01 -5.000000e+00
      vertex -2.500000e+00 -2.500000e+01 -4.330127e+00
    endloop
  endfacet
  facet normal  0.000000e+00  1.000000e+00  -0.000000e+00
    outer loop
      vertex -2.500000e+00 -2.500000e+01  4.330127e+00
      vertex -2.500000e+00 -2.500000e+01 -4.330127e+00
      vertex -4.330127e+00 -2.500000e+01  2.500000e+00
    endloop
  endfacet
  facet normal  0.000000e+00  1.000000e+00  0.000000e+00
    outer loop
      vertex -4.330127e+00 -2.500000e+01  2.500000e+00
      vertex -2.500000e+00 -2.500000e+01 -4.330127e+00
      vertex -4.330127e+00 -2.500000e+01 -2.500000e+00
    endloop
  endfacet
  facet normal  0.000000e+00  1.000000e+00  -0.000000e+00
    outer loop
      vertex -4.330127e+00 -2.500000e+01  2.500000e+00
      vertex -4.330127e+00 -2.500000e+01 -2.500000e+00
      vertex -5.000000e+00 -2.500000e+01 -9.184850e-16
    endloop
  endfacet
endsolid CATIA STL
